<?xml version="1.0" standalone="no"?>
<!DOCTYPE svg PUBLIC "-//W3C//DTD SVG 20010904//EN"
 "http://www.w3.org/TR/2001/REC-SVG-20010904/DTD/svg10.dtd">
<svg version="1.0" xmlns="http://www.w3.org/2000/svg"
 width="225.000000pt" height="225.000000pt" viewBox="0 0 225.000000 225.000000"
 preserveAspectRatio="xMidYMid meet">

<g transform="translate(0.000000,225.000000) scale(0.100000,-0.100000)"
fill="#000000" stroke="none">
<path d="M1090 1667 c-33 -17 -68 -71 -76 -116 -9 -60 -11 -61 -57 -61 -25 0
-49 -6 -54 -12 -9 -12 -33 -137 -33 -174 0 -15 10 -16 88 -12 123 8 287 70
376 143 25 20 28 26 17 39 -7 8 -33 16 -59 18 l-46 3 -11 50 c-6 28 -16 59
-22 70 -28 51 -81 74 -123 52z m84 -47 c23 -28 46 -86 46 -117 0 -10 -26 -13
-95 -13 -104 0 -102 -1 -85 62 14 50 56 98 85 98 14 0 34 -13 49 -30z"/>
<path d="M1352 1335 c-16 -47 -35 -72 -80 -103 -18 -13 -29 -28 -26 -34 4 -7
2 -8 -4 -4 -7 4 -12 2 -12 -4 0 -6 -5 -8 -12 -4 -7 5 -9 2 -5 -9 4 -12 0 -14
-19 -11 -13 2 -24 0 -24 -6 0 -6 -6 -8 -12 -4 -7 4 -4 -2 6 -15 11 -12 26 -19
33 -17 7 3 12 0 10 -6 -1 -6 3 -12 8 -14 20 -6 159 225 153 255 -2 9 -9 -2
-16 -24z"/>
<path d="M1401 1094 c0 -11 3 -14 6 -6 3 7 2 16 -1 19 -3 4 -6 -2 -5 -13z"/>
<path d="M1064 1068 c-5 -16 -8 -18 -15 -7 -6 10 -9 11 -9 2 0 -7 -4 -13 -8
-13 -13 0 -92 -75 -92 -88 0 -5 -10 -8 -22 -5 -13 3 -20 2 -16 -2 4 -4 0 -14
-10 -21 -13 -9 -19 -9 -24 -1 -5 8 -8 7 -8 -4 0 -9 -7 -22 -15 -29 -11 -9 -12
-17 -4 -31 9 -18 23 -19 199 -19 174 0 190 1 190 18 0 9 -5 24 -10 32 -9 13
-14 11 -35 -12 -42 -48 -42 -47 -65 117 -10 67 -15 81 -30 82 -11 1 -22 -7
-26 -19z m-4 -112 c-17 -15 -119 -74 -109 -62 8 9 112 75 119 76 2 0 -2 -6
-10 -14z"/>
<path d="M1411 1062 c-1 -7 -5 -10 -11 -7 -6 3 -7 -1 -4 -9 4 -11 0 -16 -10
-16 -9 0 -16 4 -16 9 0 5 -9 7 -19 4 -16 -4 -17 -8 -8 -18 7 -7 15 -11 20 -8
4 2 7 -3 7 -11 0 -8 -16 -20 -35 -27 -19 -7 -35 -17 -35 -21 0 -16 51 -89 66
-95 23 -9 63 14 69 40 4 13 0 57 -8 98 -9 40 -16 68 -16 61z"/>
<path d="M807 784 c-12 -12 -8 -129 5 -142 22 -22 25 -12 20 61 -4 71 -12 94
-25 81z"/>
<path d="M867 784 c-8 -8 1 -24 14 -24 5 0 9 7 9 15 0 15 -12 20 -23 9z"/>
<path d="M1030 711 c0 -47 4 -81 10 -81 6 0 10 11 10 25 0 14 5 25 10 25 6 0
16 -11 22 -25 6 -14 17 -25 25 -25 18 0 16 10 -6 40 -19 24 -19 25 1 52 16 23
17 28 4 28 -8 0 -20 -9 -26 -20 -16 -30 -30 -24 -30 14 0 19 -4 38 -10 41 -6
4 -10 -23 -10 -74z"/>
<path d="M1163 779 c-17 -6 -23 -16 -23 -38 0 -26 5 -32 33 -39 22 -6 32 -14
32 -28 0 -19 -15 -22 -47 -9 -13 5 -18 2 -18 -8 0 -33 74 -37 91 -6 16 31 -3
69 -35 69 -25 0 -43 25 -25 36 6 3 22 3 36 0 17 -5 24 -3 21 5 -6 18 -40 27
-65 18z"/>
<path d="M687 773 c-12 -11 -8 -118 5 -131 24 -24 88 -4 88 29 0 14 -22 10
-34 -7 -7 -9 -18 -12 -29 -8 -13 5 -17 18 -17 55 0 46 2 49 25 49 14 0 25 -4
25 -10 0 -5 7 -10 15 -10 18 0 19 12 3 28 -13 13 -70 17 -81 5z"/>
<path d="M1260 705 c0 -43 4 -75 10 -75 6 0 10 17 10 39 0 37 19 68 33 54 4
-3 7 -26 7 -50 0 -32 4 -43 15 -43 11 0 15 11 15 41 0 53 -15 79 -45 79 -16 0
-25 6 -25 15 0 8 -4 15 -10 15 -6 0 -10 -32 -10 -75z"/>
<path d="M864 736 c-9 -24 1 -99 14 -104 9 -3 12 13 12 57 0 57 -13 81 -26 47z"/>
<path d="M932 738 c-13 -13 -16 -66 -6 -92 8 -21 63 -21 71 -1 8 22 -4 30 -21
16 -21 -18 -36 -5 -36 29 0 34 15 47 36 29 17 -14 29 -6 21 16 -7 18 -48 20
-65 3z"/>
<path d="M1388 739 c-12 -7 -18 -22 -18 -47 0 -43 14 -62 45 -62 31 0 45 19
45 60 0 54 -30 74 -72 49z m40 -55 c-2 -15 -8 -29 -14 -31 -16 -5 -25 37 -13
60 14 26 32 8 27 -29z"/>
<path d="M1488 673 c-2 -54 0 -73 10 -73 6 0 12 9 12 21 0 11 5 17 10 14 6 -3
19 -3 31 0 17 6 20 14 17 58 l-3 52 -37 0 -37 1 -3 -73z m60 28 c5 -32 -5 -52
-23 -45 -15 6 -21 55 -8 68 12 12 28 0 31 -23z"/>
<path d="M846 583 c-6 -14 -5 -15 5 -6 7 7 10 15 7 18 -3 3 -9 -2 -12 -12z"/>
</g>
</svg>
